<svg width="18" height="18" viewBox="0 0 18 18" fill="none" xmlns="http://www.w3.org/2000/svg">
<g clip-path="url(#clip0_2_316)">
<path d="M8.68457 0.519339C10.8805 0.523282 12.8743 1.38862 14.3463 2.79535L15.5298 1.6119C16.0308 1.11087 16.8875 1.4657 16.8875 2.17423V6.61653C16.8875 7.05576 16.5314 7.41182 16.0922 7.41182H11.6499C10.9413 7.41182 10.5865 6.5552 11.0875 6.05417L12.471 4.6707C11.4482 3.71307 10.1248 3.18262 8.71887 3.17049C5.65708 3.14405 3.07621 5.62186 3.10269 8.78528C3.12781 11.7862 5.56072 14.3043 8.6695 14.3043C10.0323 14.3043 11.3203 13.8179 12.3354 12.9273C12.4926 12.7894 12.73 12.7978 12.8778 12.9456L14.1921 14.2599C14.3535 14.4213 14.3456 14.6845 14.1761 14.8375C12.7189 16.1538 10.7878 16.9552 8.6695 16.9552C4.13086 16.9552 0.451572 13.276 0.45154 8.73736C0.451506 4.20393 4.15114 0.51122 8.68457 0.519339Z" fill="#192A32"/>
</g>
<defs>
<clipPath id="clip0_2_316">
<rect width="16.9661" height="16.9661" fill="white" transform="matrix(-1 0 0 1 17.1525 0.254242)"/>
</clipPath>
</defs>
</svg>
